<?xml version="1.0" standalone="no"?>
<!DOCTYPE svg PUBLIC "-//W3C//DTD SVG 20010904//EN"
 "http://www.w3.org/TR/2001/REC-SVG-20010904/DTD/svg10.dtd">
<svg version="1.0" xmlns="http://www.w3.org/2000/svg"
 width="300.000000pt" height="300.000000pt" viewBox="0 0 300.000000 300.000000"
 preserveAspectRatio="xMidYMid meet">
<metadata>
Created by potrace 1.10, written by Peter Selinger 2001-2011
</metadata>
<g transform="translate(0.000000,300.000000) scale(0.100000,-0.100000)"
fill="#000000" stroke="none">
<path d="M1300 2943 c-207 -50 -362 -113 -526 -213 -38 -23 -73 -42 -79 -43
-19 -4 -166 -161 -235 -252 -79 -104 -162 -245 -191 -326 -16 -43 -25 -56 -38
-52 -9 2 -25 -5 -35 -16 -19 -21 -19 -23 2 -109 19 -77 20 -98 11 -182 -5 -52
-12 -110 -15 -129 -5 -24 -3 -32 5 -27 17 11 14 -2 -18 -80 -99 -243 -185
-607 -179 -758 1 -40 1 -40 5 -6 9 86 81 326 160 535 20 51 33 102 31 120 -3
22 -22 -28 -72 -180 -87 -270 -84 -263 -85 -245 -3 55 98 399 163 555 20 49
29 60 48 60 37 0 168 55 202 85 17 15 49 53 71 84 22 30 43 56 46 56 19 0 13
-59 -13 -137 -28 -87 -52 -130 -115 -209 -39 -49 -43 -67 -7 -33 53 49 122
166 134 226 19 94 21 99 32 79 6 -10 6 -43 1 -84 -4 -37 -8 -242 -8 -457 0
-348 3 -409 23 -563 35 -265 57 -377 83 -414 32 -47 61 -78 73 -78 5 0 -2 12
-16 28 -38 40 -64 97 -82 182 -13 64 -36 222 -36 254 0 6 29 -37 64 -96 87
-146 93 -152 163 -193 l62 -37 7 -65 c3 -35 4 -100 2 -144 -3 -43 -1 -79 4
-79 4 0 8 17 9 38 l1 37 14 -40 c7 -22 12 -29 9 -15 -3 22 -18 135 -30 228 -2
17 0 32 4 32 4 0 50 -9 102 -20 52 -11 107 -20 122 -20 16 0 26 -4 23 -9 -3
-5 12 -36 34 -70 22 -34 52 -84 66 -112 14 -28 27 -49 30 -47 5 5 -51 117 -66
132 -14 14 -13 26 2 26 7 0 26 13 43 29 28 26 35 28 87 24 62 -6 73 -17 58
-58 -5 -14 -12 -55 -15 -92 -6 -81 9 -42 20 50 7 65 17 65 46 3 16 -35 18 -36
14 -11 -4 17 -17 46 -30 66 l-23 36 66 6 c74 6 180 39 284 86 38 17 71 31 75
31 5 1 13 -32 19 -72 l11 -73 -36 -65 c-45 -81 -63 -120 -53 -120 4 1 34 51
67 111 33 61 65 113 72 116 14 6 78 104 117 180 16 32 38 59 55 68 54 27 149
124 157 158 6 29 8 30 16 12 7 -17 8 -16 4 5 -3 13 1 54 9 90 17 82 26 200 14
200 -5 0 -9 -14 -9 -31 0 -25 -6 -32 -35 -45 -19 -7 -47 -14 -62 -14 -26 1
-27 1 -8 12 59 32 102 101 125 197 18 78 7 278 -24 420 -27 120 -72 267 -89
289 -5 6 -6 12 -1 12 5 0 2 5 -6 10 -9 5 -15 25 -16 47 -1 54 -219 553 -242
553 -4 0 23 -62 60 -137 119 -243 228 -527 148 -385 -35 62 -36 43 -2 -24 41
-81 60 -166 58 -251 -1 -42 2 -69 7 -66 6 3 7 48 5 102 -5 93 -5 95 9 56 19
-53 64 -250 68 -295 2 -31 2 -32 -2 -2 -2 17 -8 32 -14 32 -11 0 -12 8 11
-105 44 -213 12 -364 -90 -433 -28 -19 -43 -22 -75 -17 -22 3 -51 13 -63 21
-13 9 -26 13 -29 10 -10 -10 76 -46 130 -54 60 -9 117 -5 117 9 0 5 5 9 11 9
12 0 5 -64 -18 -155 -32 -130 -133 -212 -458 -373 -182 -90 -242 -106 -400
-104 -102 1 -144 6 -302 33 -263 46 -312 73 -398 219 -21 36 -55 90 -76 120
-36 53 -38 60 -48 175 -15 176 -22 484 -10 460 6 -15 7 -11 2 15 -9 48 -8 369
2 399 7 22 10 19 29 -35 12 -34 33 -75 45 -93 l23 -33 -31 -32 c-17 -17 -31
-38 -31 -46 0 -12 -2 -13 -9 -2 -6 10 -10 6 -14 -15 -3 -15 -1 -32 4 -38 5 -5
9 -1 9 12 0 38 177 209 197 190 6 -7 -39 -54 -76 -80 -14 -9 -22 -19 -20 -22
3 -2 21 6 39 20 18 14 35 23 37 21 2 -2 -5 -30 -15 -62 -11 -33 -23 -92 -27
-132 l-7 -74 -29 28 c-16 15 -40 50 -54 78 -20 39 -25 45 -25 25 0 -39 61
-118 111 -144 l26 -14 -5 53 c-2 29 2 87 9 127 l13 74 7 -74 c11 -115 19 -161
29 -161 17 0 22 21 8 37 -9 11 -13 49 -13 124 0 60 -3 101 -7 91 -5 -14 -7
-13 -7 6 -1 12 9 42 21 65 l22 42 8 -110 c7 -97 15 -157 34 -230 4 -17 -6 -29
-51 -59 -126 -87 -207 -266 -204 -450 l2 -81 12 86 c34 232 115 370 246 419
33 13 75 23 92 22 42 -1 49 6 29 26 -11 10 -33 17 -59 17 -23 1 -45 3 -48 6
-13 14 -23 164 -17 262 4 59 4 107 0 107 -5 0 -8 -26 -8 -57 0 -32 -5 -65 -10
-73 -7 -10 -10 10 -9 68 1 76 9 106 23 83 8 -12 59 2 64 17 2 7 -1 12 -7 12
-6 0 -11 -4 -11 -8 0 -25 -61 -5 -182 58 -35 19 -93 82 -117 128 -15 29 -5 47
17 30 15 -11 15 -11 5 2 -7 9 -10 32 -6 57 4 34 11 44 36 54 16 7 41 22 56 34
14 12 36 25 49 29 12 4 32 26 45 49 21 40 22 53 22 272 0 149 -4 244 -12 268
-6 21 -10 44 -7 52 10 26 185 96 341 136 181 46 255 50 493 24 181 -19 274
-25 235 -15 -52 14 -359 42 -472 43 -97 1 -125 -3 -273 -41 -168 -44 -275 -91
-405 -178 -46 -31 -51 -32 -62 -17 -7 9 -13 23 -13 30 0 16 65 58 200 127 302
155 564 193 875 127 207 -43 311 -86 467 -193 101 -69 175 -139 320 -303 162
-185 209 -243 260 -329 45 -73 93 -184 85 -192 -2 -2 -28 37 -58 87 -30 49
-70 111 -91 137 -20 26 -49 71 -64 100 -15 29 -33 57 -40 63 -20 16 -3 -33 39
-116 102 -204 176 -498 207 -835 18 -188 -11 -448 -80 -720 -53 -213 -58 -223
-61 -130 l-2 75 -8 -85 c-14 -163 -8 -470 10 -470 3 0 6 82 7 183 l0 182 48
160 c68 233 111 500 130 815 22 348 21 442 -4 524 -47 151 -115 268 -241 418
-236 277 -292 337 -376 399 -184 138 -264 177 -465 231 -146 38 -161 40 -328
44 -136 3 -189 0 -240 -13z m-562 -363 c5 0 19 11 32 25 13 14 36 32 51 39 26
13 27 13 33 -23 20 -122 28 -302 18 -398 -15 -148 -14 -146 -153 -227 -41 -24
-61 -31 -73 -24 -9 5 -24 7 -34 5 -18 -4 -15 -6 31 -21 27 -9 23 -71 -8 -101
-13 -14 -30 -25 -37 -25 -18 0 -48 52 -48 82 0 17 -8 29 -26 37 l-27 12 16
-25 c9 -14 23 -43 31 -66 13 -38 13 -42 -8 -67 -112 -135 -164 -171 -261 -180
-64 -6 -68 -5 -61 13 4 10 9 39 12 64 2 25 6 65 10 89 4 31 -1 72 -17 132 -30
115 -24 124 76 116 72 -6 216 -49 238 -72 11 -10 16 -10 31 0 12 9 14 15 5 20
-6 4 -15 2 -19 -5 -11 -18 -34 21 -55 95 -23 79 -23 213 0 280 31 93 84 190
136 253 l53 64 23 -46 c13 -25 27 -46 31 -46z m-234 -160 c-20 -40 -48 -92
-63 -114 -41 -61 -46 -75 -13 -38 l29 33 5 -98 c3 -54 13 -118 21 -143 9 -24
14 -46 12 -49 -3 -2 -37 7 -77 19 -40 13 -90 23 -110 22 -24 0 -38 4 -38 12 0
18 74 167 116 233 46 73 145 205 150 201 2 -2 -13 -37 -32 -78z m2289 -367
c29 -49 80 -134 111 -191 l58 -102 -7 -68 c-4 -37 -13 -98 -21 -135 -17 -81
-17 -90 -4 -82 6 4 10 -30 9 -97 -1 -108 -16 -97 -18 15 0 31 -5 65 -10 75 -5
9 -14 61 -21 114 -22 184 -73 362 -156 546 -4 6 -4 12 -1 12 3 0 30 -39 60
-87z m-2133 -253 c17 -40 51 -73 135 -128 38 -25 74 -49 79 -54 14 -11 -12
-36 -63 -59 -25 -11 -56 -30 -68 -41 -13 -12 -24 -20 -26 -17 -12 15 -71 151
-87 200 -20 59 -22 92 -7 117 13 19 24 14 37 -18z m1421 -1377 c-24 -44 -38
-55 -59 -49 -12 4 -22 11 -22 15 0 5 72 47 88 50 1 1 -2 -7 -7 -16z m-77 -60
l35 -16 -37 -53 c-20 -29 -43 -53 -49 -54 -7 0 -13 -7 -13 -15 0 -8 -4 -15
-10 -15 -5 0 -10 12 -10 26 0 21 4 24 20 19 17 -6 20 -2 19 27 -1 24 -3 27 -6
10 -7 -38 -37 -23 -41 20 -3 32 1 39 25 52 15 8 29 15 30 16 1 0 18 -7 37 -17z
m-735 -139 l32 -7 -22 -23 c-29 -31 -33 -30 -59 6 -21 29 -21 30 -2 30 11 0
34 -3 51 -6z"/>
<path d="M1580 2332 c0 -7 14 -40 31 -74 49 -97 97 -229 124 -341 30 -122 29
-117 8 -118 -15 0 -14 -2 3 -9 17 -7 22 -23 34 -109 7 -56 11 -103 8 -106 -3
-3 -17 26 -33 65 -15 38 -32 70 -36 70 -4 0 -8 8 -8 18 0 46 -61 242 -83 267
-8 9 14 -72 33 -123 22 -57 51 -213 56 -301 4 -66 9 -88 16 -76 5 9 7 48 5 86
-2 38 0 65 4 61 6 -6 58 -157 58 -168 0 -2 -9 -4 -19 -4 -11 0 -33 -14 -49
-31 l-29 -31 -7 108 c-4 60 -13 138 -20 174 l-13 65 4 -105 c3 -58 9 -118 14
-134 18 -57 4 -177 -28 -239 -14 -27 -13 -28 6 -17 13 6 28 34 39 73 l20 62
61 19 c54 17 70 19 135 9 108 -15 245 -83 315 -157 58 -61 80 -68 38 -12 -42
55 -126 121 -202 159 -91 45 -132 58 -199 60 l-55 2 -6 85 c-4 47 -11 112 -16
145 -14 92 -13 95 21 95 28 0 30 -3 61 -97 17 -54 40 -127 49 -163 l18 -65 1
85 c0 47 -6 112 -14 145 -8 33 -15 65 -15 72 0 28 162 -43 238 -104 23 -19 42
-30 42 -24 0 14 -64 64 -121 96 -53 28 -169 65 -206 65 -13 0 -23 6 -23 14 0
15 -202 427 -239 487 -12 19 -21 28 -21 21z m199 -409 c28 -56 51 -105 51
-108 0 -3 -13 -5 -29 -5 -28 0 -30 3 -46 77 -9 42 -24 95 -31 117 -23 63 -1
31 55 -81z m109 -135 c11 -15 42 -158 41 -192 0 -11 -16 24 -34 79 -36 107
-40 125 -26 125 5 0 13 -6 19 -12z"/>
<path d="M2333 2175 c99 -200 154 -369 211 -650 53 -260 93 -658 80 -780 -9
-79 -19 -50 -28 82 -11 153 -27 183 -20 38 3 -66 10 -135 16 -154 6 -19 8 -74
6 -125 -6 -100 -29 -172 -52 -163 -11 4 -17 -6 -24 -36 -6 -23 -15 -57 -20
-74 -6 -20 -7 -33 -1 -33 5 0 9 -20 9 -45 0 -44 -11 -58 -27 -31 -13 21 -54
39 -98 43 -66 6 -68 8 -62 58 5 36 15 52 48 82 22 20 62 66 87 102 26 37 49
68 53 71 11 8 52 110 47 116 -3 2 -16 -17 -28 -43 -33 -71 -116 -187 -168
-235 -42 -39 -46 -46 -49 -99 -4 -52 -3 -57 19 -63 13 -3 33 -6 46 -6 13 0 36
-7 53 -15 40 -21 135 -119 166 -172 13 -23 27 -43 29 -43 10 0 2 20 -21 54
-22 33 -24 42 -15 79 20 90 160 429 180 435 5 2 10 17 10 33 0 16 9 55 19 87
11 32 22 82 25 112 l5 55 -10 -45 c-21 -90 -80 -264 -115 -343 -107 -240 -157
-332 -175 -321 -12 7 -11 82 1 169 9 55 16 76 40 100 25 26 31 44 44 130 24
159 28 258 16 435 -21 335 -85 686 -176 959 -39 117 -124 295 -156 326 -12 12
2 -25 35 -90z m250 -2025 c-6 -22 -23 -38 -23 -21 0 17 12 41 20 41 5 0 6 -9
3 -20z"/>
<path d="M958 2123 l-14 -68 -37 3 c-21 2 -37 -2 -37 -8 0 -5 18 -10 40 -10
53 0 140 -19 140 -31 0 -15 -29 -70 -57 -107 -18 -24 -24 -44 -23 -75 1 -23 1
-69 1 -102 0 -42 2 -55 9 -45 5 8 10 49 10 90 0 68 3 82 42 157 48 94 45 108
-29 119 -40 6 -44 9 -39 28 10 32 19 116 14 116 -3 0 -12 -30 -20 -67z"/>
<path d="M2681 2085 c0 -5 6 -21 14 -35 8 -14 14 -20 14 -15 0 6 -6 21 -14 35
-8 14 -14 21 -14 15z"/>
<path d="M2716 2005 c3 -11 16 -51 29 -90 13 -38 28 -94 35 -123 7 -29 14 -51
17 -49 8 9 -36 174 -62 228 -14 30 -22 45 -19 34z"/>
<path d="M1872 1849 c6 -16 12 -28 14 -26 5 5 -13 57 -20 57 -3 0 0 -14 6 -31z"/>
<path d="M740 1845 c0 -8 7 -15 16 -15 14 0 14 3 4 15 -7 8 -14 15 -16 15 -2
0 -4 -7 -4 -15z"/>
<path d="M1026 1845 c-3 -9 -6 -26 -5 -38 1 -16 4 -12 10 12 10 34 6 55 -5 26z"/>
<path d="M1586 1795 c12 -115 24 -158 18 -68 -2 45 -9 93 -14 105 -7 17 -8 6
-4 -37z"/>
<path d="M995 1633 c-17 -128 -17 -255 0 -358 4 -22 -3 -15 -26 30 -20 39 -28
50 -24 30 10 -45 38 -88 59 -91 15 -2 17 2 12 24 -4 15 -9 92 -12 172 l-5 145
36 -119 c44 -144 92 -242 140 -284 51 -45 63 -40 16 7 -22 22 -45 50 -52 63
-12 23 -12 23 22 -3 19 -14 56 -36 83 -49 40 -19 54 -21 75 -13 14 6 35 14 46
18 20 7 20 6 1 -9 -34 -27 -2 -18 46 14 58 39 117 109 162 195 l37 70 -6 -72
c-6 -90 -28 -147 -67 -174 -36 -26 -30 -37 6 -14 50 33 128 178 125 234 0 9
-9 -8 -18 -37 -10 -29 -21 -56 -25 -59 -3 -4 -6 38 -6 93 l0 98 -34 -71 c-44
-91 -98 -177 -131 -205 -32 -27 -122 -67 -154 -68 -27 0 -137 53 -165 80 -10
10 -29 48 -41 84 -12 36 -24 63 -27 60 -3 -3 -14 26 -24 63 -13 47 -19 101
-19 176 0 59 -3 107 -6 107 -3 0 -14 -61 -24 -137z"/>
<path d="M1940 1757 c-1 -22 24 -97 32 -97 5 0 6 10 2 22 -10 33 -33 84 -34
75z"/>
<path d="M2195 1720 c4 -14 9 -55 12 -91 5 -66 4 -68 -36 -123 -48 -65 -77
-85 -84 -58 -4 15 -5 15 -6 0 -3 -53 55 -20 106 59 34 53 35 59 31 127 -3 40
-10 81 -17 91 -11 18 -12 18 -6 -5z"/>
<path d="M2652 1660 c0 -19 2 -27 5 -17 2 9 2 25 0 35 -3 9 -5 1 -5 -18z"/>
<path d="M2011 1665 c-1 -25 26 -108 32 -99 3 6 -2 33 -13 60 -10 27 -19 45
-19 39z"/>
<path d="M1985 1635 c3 -11 16 -54 27 -95 25 -92 38 -110 37 -49 0 30 -3 38
-8 25 -5 -14 -12 -3 -25 45 -9 36 -22 71 -27 79 -9 12 -10 11 -4 -5z"/>
<path d="M1963 1570 c0 -41 2 -58 4 -37 2 20 2 54 0 75 -2 20 -4 3 -4 -38z"/>
<path d="M2665 1320 c0 -162 -3 -331 -7 -375 -5 -61 -4 -72 3 -45 14 46 22
532 12 635 -6 57 -8 -4 -8 -215z"/>
<path d="M2831 1600 c0 -8 4 -24 9 -35 5 -13 9 -14 9 -5 0 8 -4 24 -9 35 -5
13 -9 14 -9 5z"/>
<path d="M70 1572 c0 -5 10 -17 21 -28 22 -19 22 -19 10 3 -12 24 -31 39 -31
25z"/>
<path d="M250 1559 c0 -6 23 -44 51 -84 l50 -73 -12 -108 c-7 -60 -13 -189
-13 -286 -1 -98 -2 -178 -3 -178 -8 0 -45 146 -62 242 -23 130 -43 331 -35
353 3 7 1 22 -5 32 -18 31 -13 -143 9 -294 21 -143 59 -303 84 -351 9 -17 19
-88 26 -173 18 -230 76 -509 105 -509 2 0 0 12 -6 28 -13 33 -39 165 -39 195
0 12 16 -16 34 -62 19 -46 44 -97 55 -112 17 -23 39 -118 41 -171 0 -14 30 -8
30 5 0 35 -23 134 -36 154 -30 47 -9 39 54 -19 39 -36 55 -40 46 -12 -15 49
-15 49 -24 34 -7 -11 -16 -8 -47 15 -21 16 -46 39 -55 50 -10 11 -17 16 -18
11 0 -5 7 -18 17 -28 9 -10 12 -18 7 -18 -14 0 -36 39 -28 51 3 6 -7 28 -22
50 -29 42 -53 135 -54 206 0 23 -5 45 -12 49 -8 5 -10 -16 -6 -82 10 -171 -11
-32 -28 185 -12 158 -15 273 -10 431 6 244 12 300 32 300 20 0 19 1 -32 56
-25 27 -54 66 -65 87 -20 37 -29 46 -29 26z"/>
<path d="M1838 1523 c12 -2 30 -2 40 0 9 3 -1 5 -23 4 -22 0 -30 -2 -17 -4z"/>
<path d="M2066 1505 c8 -37 14 -45 14 -19 0 10 -5 26 -10 34 -8 11 -9 7 -4
-15z"/>
<path d="M1905 1378 c-63 -37 -115 -154 -131 -295 -9 -83 1 -127 38 -169 30
-34 43 -42 97 -59 23 -7 23 -7 5 17 -12 16 -25 23 -39 20 -30 -5 -52 24 -37
49 7 10 12 29 12 43 0 24 -25 54 -37 42 -3 -3 -1 -6 6 -6 19 0 9 -54 -11 -58
-24 -5 -31 30 -13 64 8 16 15 34 15 39 0 6 9 21 20 35 11 14 20 35 20 48 0 12
5 22 10 22 6 0 10 -4 10 -10 0 -6 9 -5 24 1 14 7 22 17 19 25 -3 9 2 14 16 14
12 0 21 -4 21 -10 0 -5 9 -10 19 -10 11 0 23 5 26 10 14 22 85 0 85 -27 0 -5
11 -24 25 -43 32 -43 31 -46 -4 -58 -16 -6 -34 -19 -40 -30 -7 -14 -26 -22
-59 -27 -26 -3 -54 -11 -62 -16 -12 -8 -11 -9 5 -6 77 19 93 18 124 -9 17 -14
31 -36 31 -47 1 -20 4 -18 30 13 33 38 38 74 19 160 -14 66 -53 165 -81 206
-26 38 -93 84 -123 84 -11 0 -29 -6 -40 -12z m119 -58 c20 -20 26 -30 16 -30
-11 0 -9 -5 6 -18 12 -9 25 -27 29 -39 6 -22 4 -23 -59 -23 l-66 0 0 29 c0 17
6 33 12 37 9 6 5 10 -12 14 -20 5 -26 13 -28 39 l-3 34 37 -6 c23 -4 50 -18
68 -37z m-118 -25 c21 -31 12 -69 -21 -91 -30 -19 -65 -10 -65 17 0 23 28 81
44 91 18 12 25 9 42 -17z m244 -279 c0 -13 -6 -29 -14 -36 -8 -6 -12 -18 -9
-26 3 -8 0 -14 -6 -14 -6 0 -11 7 -11 15 0 8 -9 19 -20 25 -38 20 -17 60 32
60 23 0 28 -4 28 -24z"/>
<path d="M655 1269 c16 -71 42 -108 66 -93 9 5 6 10 -8 15 -13 5 -25 24 -33
53 -15 55 -36 75 -25 25z"/>
<path d="M2156 1243 c4 -16 11 -32 17 -38 6 -7 8 -2 3 15 -3 14 -6 31 -6 38 0
6 -5 12 -10 12 -6 0 -8 -11 -4 -27z"/>
<path d="M625 1175 c4 -22 16 -58 26 -80 11 -22 17 -31 13 -20 -3 11 -9 42
-13 68 -5 27 -14 54 -20 60 -10 9 -11 3 -6 -28z"/>
<path d="M1960 1150 c0 -6 -11 -22 -25 -35 -28 -29 -24 -31 16 -8 29 18 37 37
19 48 -5 3 -10 1 -10 -5z"/>
<path d="M966 1114 c-41 -42 -81 -137 -96 -226 -15 -96 -14 -108 12 -105 17 1
24 -4 26 -19 4 -25 -27 -42 -40 -22 -5 8 -8 1 -8 -20 0 -25 8 -42 31 -63 17
-16 37 -29 44 -29 7 0 16 -6 18 -12 4 -10 6 -10 6 -1 1 7 8 10 19 6 15 -6 15
-4 -2 15 -41 46 4 131 77 146 32 6 100 -23 115 -50 13 -23 26 -12 41 34 12 36
11 47 -13 119 -15 44 -49 116 -77 161 -70 114 -95 125 -153 66z m99 -24 c17
-19 17 -20 -9 -31 -22 -10 -29 -9 -47 7 -19 17 -19 19 -3 31 24 18 38 16 59
-7z m-67 -32 c41 -41 -18 -135 -69 -107 -18 9 -20 17 -16 46 10 60 54 92 85
61z m90 -20 c19 -19 14 -45 -10 -51 -27 -7 -38 -1 -38 22 0 16 18 41 30 41 3
0 11 -5 18 -12z m58 -101 c12 -18 25 -43 29 -56 6 -19 4 -22 -12 -17 -13 4
-25 -5 -43 -29 -18 -24 -36 -36 -63 -40 -55 -10 -107 -62 -107 -109 0 -39 -18
-48 -41 -20 -10 13 -10 20 4 44 23 38 21 66 -4 84 l-21 15 21 34 c11 19 21 44
21 57 0 15 5 20 14 17 7 -3 30 6 50 19 20 14 36 23 36 21 0 -3 15 -1 33 3 54
13 61 11 83 -23z m53 -114 c23 -41 -39 -74 -70 -37 -11 14 -10 19 10 35 29 24
47 24 60 2z"/>
<path d="M1040 918 c0 -6 -10 -22 -22 -35 -18 -20 -19 -23 -5 -23 9 0 17 6 17
14 0 23 22 31 32 12 5 -9 21 -16 36 -15 26 0 26 1 5 9 -12 5 -28 18 -35 30
-14 22 -28 26 -28 8z"/>
<path d="M153 1113 c-12 -13 -19 -23 -14 -23 10 0 46 39 40 43 -2 2 -14 -7
-26 -20z"/>
<path d="M2840 949 c-16 -104 -9 -110 11 -8 8 44 12 82 8 85 -4 2 -12 -32 -19
-77z"/>
<path d="M823 966 c-17 -23 -37 -55 -43 -71 -6 -17 -19 -38 -27 -47 -13 -14
-14 -23 -5 -40 9 -19 11 -20 11 -5 1 21 52 126 82 168 33 46 18 42 -18 -5z"/>
<path d="M1894 945 c-9 -14 -14 -28 -11 -31 3 -3 13 8 22 25 19 37 12 41 -11
6z"/>
<path d="M1971 814 c-6 -21 -7 -42 -2 -47 4 -4 11 11 14 35 7 55 1 61 -12 12z"/>
<path d="M1605 716 c-70 -23 -109 -43 -139 -71 -25 -23 -28 -31 -23 -71 7 -66
28 -84 96 -84 62 0 161 40 195 78 16 19 17 27 7 68 -23 91 -51 107 -136 80z
m100 -30 c27 -40 31 -93 9 -117 -51 -57 -195 -90 -234 -54 -26 24 -36 80 -19
101 34 41 146 93 201 94 18 0 33 -8 43 -24z"/>
<path d="M801 614 c-17 -69 -24 -151 -12 -158 7 -5 11 6 11 31 0 21 4 65 10
97 11 69 6 86 -9 30z"/>
<path d="M1073 600 c0 -25 2 -35 4 -22 2 12 2 32 0 45 -2 12 -4 2 -4 -23z"/>
<path d="M2292 584 c-6 -20 -7 -45 -3 -57 7 -18 10 -11 16 31 8 64 3 76 -13
26z"/>
<path d="M571 551 c-1 -12 13 -64 30 -115 18 -50 32 -100 31 -111 0 -11 2 -14
5 -7 3 6 9 10 14 7 4 -3 1 13 -8 37 -8 24 -28 81 -43 128 -16 47 -29 74 -29
61z"/>
<path d="M2534 538 c-14 -28 -15 -31 -2 -20 14 11 31 52 22 52 -2 0 -11 -15
-20 -32z"/>
<path d="M2251 505 c-11 -19 -24 -35 -29 -35 -5 0 -21 -18 -36 -40 -15 -23
-39 -46 -54 -52 -15 -6 -22 -12 -15 -15 20 -7 63 28 114 95 44 58 57 82 45 82
-2 0 -13 -16 -25 -35z"/>
<path d="M2307 491 c-4 -18 -7 -50 -6 -70 l1 -36 9 40 c6 22 9 54 7 70 l-3 30
-8 -34z"/>
<path d="M2623 415 c0 -38 2 -53 4 -32 2 20 2 52 0 70 -2 17 -4 1 -4 -38z"/>
<path d="M2281 463 c0 -6 -11 -33 -23 -60 -37 -81 -38 -83 -29 -83 13 0 63
119 58 138 -3 9 -5 12 -6 5z"/>
<path d="M1 435 c-1 -45 53 -131 131 -208 48 -48 63 -67 46 -62 -76 23 -141
94 -169 185 l-7 25 -1 -25 c-1 -42 44 -124 92 -166 62 -55 162 -87 212 -68 11
5 1 13 -37 31 -111 51 -235 189 -259 288 l-7 30 -1 -30z"/>
<path d="M2455 344 c-9 -31 -14 -58 -12 -61 5 -4 20 39 31 90 11 48 -2 29 -19
-29z"/>
<path d="M615 264 c-4 -24 -2 -39 5 -44 6 -4 18 -45 25 -91 20 -112 24 -129
34 -129 9 0 -19 155 -39 215 -8 22 -13 50 -11 63 4 36 -6 25 -14 -14z"/>
<path d="M790 245 c0 -25 29 -157 35 -163 4 -4 4 11 0 33 -4 22 -8 57 -10 78
-1 21 -7 43 -14 50 -6 6 -11 7 -11 2z"/>
<path d="M2282 161 c-13 -40 -21 -75 -19 -78 8 -8 48 109 45 131 -2 13 -13 -9
-26 -53z"/>
<path d="M2845 200 c-10 -11 -14 -20 -9 -20 5 0 17 9 27 20 9 11 13 20 8 20
-4 0 -16 -9 -26 -20z"/>
<path d="M1046 170 c3 -14 10 -29 15 -34 14 -16 10 6 -7 34 l-15 25 7 -25z"/>
<path d="M2394 139 c-32 -34 -93 -69 -121 -69 -10 -1 -28 -16 -40 -35 -14 -23
-17 -32 -7 -28 8 3 19 13 24 23 5 10 35 26 66 36 51 16 104 55 104 77 0 14 63
-35 117 -93 54 -57 69 -57 30 0 -19 30 -122 118 -138 120 -3 0 -18 -14 -35
-31z m161 -79 c12 -19 -12 -10 -31 11 -19 22 -19 22 3 10 12 -6 25 -16 28 -21z"/>
<path d="M2641 134 c-2 -34 21 -134 31 -134 4 0 6 11 2 25 -3 13 -12 48 -19
77 -7 29 -13 44 -14 32z"/>
<path d="M3 49 c0 -46 2 -49 14 -33 17 23 17 58 -1 73 -12 10 -14 3 -13 -40z"/>
<path d="M2204 58 c-4 -7 -14 -23 -22 -35 -8 -13 -10 -23 -6 -23 11 0 47 61
40 67 -2 2 -7 -2 -12 -9z"/>
</g>
</svg>
